<svg width="26" height="39" viewBox="0 0 26 39" fill="none" xmlns="http://www.w3.org/2000/svg">
<rect y="9.49384" width="26" height="21.6133" rx="1.85714" fill="black"/>
<rect x="3.71509" y="15.8876" width="5.55254" height="3.70549" rx="0.928571" fill="white"/>
<rect x="16.6702" y="15.8876" width="5.55254" height="3.70549" rx="0.928571" fill="white"/>
<rect x="10.1929" y="15.8876" width="5.55254" height="3.70549" rx="0.928571" fill="white"/>
<rect x="3.71509" y="25.1512" width="5.55254" height="3.70549" rx="0.928571" fill="white"/>
<rect x="16.6702" y="25.1513" width="5.55254" height="3.70549" rx="0.928571" fill="white"/>
<rect x="10.1929" y="25.1513" width="5.55254" height="3.70549" rx="0.928571" fill="white"/>
<rect x="3.71509" y="20.5195" width="5.55254" height="3.70549" rx="0.928571" fill="white"/>
<rect x="16.6702" y="20.5194" width="5.55254" height="3.70549" rx="0.928571" fill="white"/>
<rect x="10.1929" y="20.5194" width="5.55254" height="3.70549" rx="0.928571" fill="white"/>
<rect y="11.8953" width="26" height="2.40148" fill="white"/>
<rect x="5.81707" y="8.35717" width="1.36555" height="3.07389" rx="0.682773" fill="white" stroke="black" stroke-width="0.928571"/>
<rect x="18.8171" y="8.35717" width="1.36555" height="3.07389" rx="0.682773" fill="white" stroke="black" stroke-width="0.928571"/>
</svg>
