<svg width="25" height="25" viewBox="0 0 25 25" fill="none" xmlns="http://www.w3.org/2000/svg">
<path fill-rule="evenodd" clip-rule="evenodd" d="M12.5198 3.64054C7.05042 3.64054 2.90613 7.41271 2.90613 11.7351C2.90613 13.2882 3.42653 14.7459 4.34513 15.9819C4.48231 16.1665 4.55638 16.3903 4.55638 16.6203C4.55638 18.261 3.91458 19.8118 3.24952 21.2826C5.28708 21.0517 6.62079 20.39 7.42676 19.4423C7.71909 19.0986 8.19558 18.9752 8.61803 19.1337C9.80719 19.5799 11.1266 19.8296 12.5198 19.8296C17.9891 19.8296 22.1334 16.0575 22.1334 11.7351C22.1334 7.41271 17.9891 3.64054 12.5198 3.64054ZM0.765594 11.7351C0.765594 5.93429 6.18801 1.5 12.5198 1.5C18.8515 1.5 24.274 5.93429 24.274 11.7351C24.274 17.5359 18.8515 21.9702 12.5198 21.9702C11.1255 21.9702 9.78462 21.7588 8.53897 21.3691C7.05477 22.7402 4.90913 23.3963 2.29795 23.4988C1.19566 23.5421 0.397126 22.3961 0.860191 21.3673C1.48871 19.9612 2.28391 18.5099 2.4032 16.9449C1.3676 15.4321 0.765594 13.6478 0.765594 11.7351Z" fill="black"/>
</svg>
