<svg width="26" height="25" viewBox="0 0 26 25" fill="none" xmlns="http://www.w3.org/2000/svg">
<g clip-path="url(#clip0_618_682)">
<path d="M19.1837 3.14387L17.1847 5.16388L20.5009 8.51501L22.5 6.49495L19.1837 3.14387ZM15.7401 6.60804L9.56668 12.862L8.47705 17.3141L12.8829 16.2131L19.0563 9.95917L15.7401 6.60804Z" stroke="#26A69A" stroke-width="1.46646"/>
<path d="M5.66181 3.00028C4.46852 3.00028 3.5 3.98501 3.5 5.19821V19.8026C3.5 21.0158 4.46852 22 5.66181 22H20.0264C21.2197 22 22.1878 21.0158 22.1878 19.8026V10.1043C22.1595 10.1127 22.1312 10.1207 22.1028 10.1284V19.8025C22.1028 20.969 21.1737 21.9135 20.0264 21.9135H5.66183C4.51448 21.9135 3.58497 20.969 3.58497 19.8025V5.19812C3.58497 4.03162 4.51448 3.08714 5.66183 3.08714H16.3938C16.4044 3.05799 16.4152 3.02894 16.4263 3L5.66181 3.00028Z" fill="#26A69A" stroke="#26A69A" stroke-width="1.9389" stroke-linejoin="round"/>
</g>
<defs>
<clipPath id="clip0_618_682">
<rect width="21" height="21" fill="white" transform="translate(2.5 2)"/>
</clipPath>
</defs>
</svg>
