<?xml version="1.0" encoding="UTF-8" standalone="no"?>
<svg
   width="21.126825"
   height="23.999989"
   viewBox="0 0 21.126825 23.999989"
   fill="none"
   version="1.1"
   id="svg4"
   xmlns="http://www.w3.org/2000/svg"
   xmlns:svg="http://www.w3.org/2000/svg">
  <defs
     id="defs8" />
  <path
     fill-rule="evenodd"
     clip-rule="evenodd"
     d="M 11.561604,1.000008 H 9.5652041 c -1.3035,-9.98e-6 -2.34022,-9.98e-6 -3.17662,0.06832 -0.8565,0.06998 -1.58682,0.21636 -2.25554,0.55709 -1.07968,0.55012 -1.95748,1.42793 -2.50761,2.50761 -0.34073,0.66871 -0.4871,1.39904 -0.55708,2.25554 -0.06834,0.83639 -0.06833,1.87307 -0.06833,3.17654 v 8.2677 c -1e-5,0.9629 -2e-5,1.7518 0.05556,2.3625 0.05503,0.6047 0.17568,1.2259 0.56387,1.7163 0.53884,0.6808 1.35699,1.0809 2.22518,1.0883 0.62544,0.0054 1.18986,-0.2808 1.70094,-0.6086 0.5162,-0.3311 1.13885,-0.8154 1.89892,-1.4065 l 1.82721,-1.4212 c 0.7417999,-0.577 0.9015999,-0.6783 1.0417999,-0.7162 0.1636,-0.0443 0.3362,-0.0443 0.4998,0 0.1402,0.0379 0.3,0.1392 1.0418,0.7162 l 1.8271,1.4211 c 0.7601,0.5912 1.3828,1.0755 1.899,1.4066 0.5111,0.3278 1.0755,0.614 1.701,0.6086 0.8682,-0.0074 1.6863,-0.4075 2.2251,-1.0883 0.3882,-0.4904 0.5089,-1.1116 0.5639,-1.7163 0.0556,-0.6107 0.0556,-1.3995 0.0556,-2.3625 v -8.2676 c 0,-1.30352 0,-2.34026 -0.0684,-3.17664 -0.0699,-0.8565 -0.2163,-1.58683 -0.557,-2.25554 -0.5502,-1.07968 -1.428,-1.95749 -2.5076,-2.50761 -0.6688,-0.34073 -1.3991,-0.48711 -2.2556,-0.55709 -0.8364,-0.06833 -1.8731,-0.06833 -3.1766,-0.06832 z"
     id="path2" storke="#000000" stroke-width="2"/>
</svg>
