<svg width="27" height="25" viewBox="0 0 27 25" fill="none" xmlns="http://www.w3.org/2000/svg">
<path d="M12.7485 5.37443L13.5001 6.23086L14.2517 5.37443C15.6703 3.75794 17.2314 3 18.9304 3C22.3134 3 25.0558 5.74246 25.0558 9.12546C25.0558 10.9169 24.7117 12.1772 23.6412 13.6065C22.513 15.1128 20.5726 16.815 17.2608 19.3909L14.2268 21.7507C13.7993 22.0831 13.2008 22.0831 12.7734 21.7507L9.73942 19.3909C6.42759 16.815 4.48715 15.1128 3.35897 13.6065C2.28844 12.1772 1.94434 10.9169 1.94434 9.12546C1.94434 5.74246 4.6868 3 8.0698 3C9.76874 3 11.3298 3.75794 12.7485 5.37443Z" stroke="black" stroke-width="2"/>
</svg>
