<svg width="26" height="25" viewBox="0 0 26 25" fill="none" xmlns="http://www.w3.org/2000/svg">
<path d="M12.4985 5.37449L13.2501 6.23092L14.0017 5.37449C15.4203 3.758 16.9814 3.00006 18.6804 3.00006C22.0634 3.00006 24.8058 5.74252 24.8058 9.12552C24.8058 10.917 24.4617 12.1773 23.3912 13.6066C22.263 15.1128 20.3226 16.8151 17.0108 19.391L13.9768 21.7507C13.5493 22.0832 12.9508 22.0832 12.5234 21.7507L9.48942 19.391C6.17759 16.8151 4.23715 15.1128 3.10897 13.6066C2.03844 12.1773 1.69434 10.917 1.69434 9.12552C1.69434 5.74252 4.4368 3.00006 7.8198 3.00006C9.51874 3.00006 11.0798 3.758 12.4985 5.37449Z" stroke="black" stroke-width="2"/>
</svg>
