<svg width="26" height="25" viewBox="0 0 26 25" fill="none" xmlns="http://www.w3.org/2000/svg">
<path d="M12.2485 5.37443L13.0001 6.23086L13.7517 5.37443C15.1703 3.75794 16.7314 3 18.4304 3C21.8134 3 24.5558 5.74246 24.5558 9.12546C24.5558 10.9169 24.2117 12.1772 23.1412 13.6065C22.013 15.1128 20.0726 16.815 16.7608 19.3909L13.7268 21.7507C13.2993 22.0831 12.7008 22.0831 12.2734 21.7507L9.23942 19.3909C5.92759 16.815 3.98715 15.1128 2.85897 13.6065C1.78844 12.1772 1.44434 10.9169 1.44434 9.12546C1.44434 5.74246 4.1868 3 7.5698 3C9.26874 3 10.8298 3.75794 12.2485 5.37443Z" stroke="#26A69A" stroke-width="2"/>
</svg>
