<svg width="25" height="25" viewBox="0 0 25 25" fill="none" xmlns="http://www.w3.org/2000/svg">
<path fill-rule="evenodd" clip-rule="evenodd" d="M11.5017 1.5H13.4984C14.8022 1.49999 15.8391 1.49999 16.6757 1.56832C17.5323 1.6383 18.2628 1.78468 18.9316 2.12541C20.0115 2.67553 20.8895 3.55334 21.4397 4.63302C21.7805 5.30173 21.9269 6.03206 21.9969 6.88856C22.0653 7.72495 22.0653 8.76164 22.0652 10.0652V18.3328C22.0653 19.2958 22.0653 20.0846 22.0097 20.6953C21.9546 21.3 21.834 21.9212 21.4457 22.4116C20.9068 23.0924 20.0885 23.4925 19.2201 23.4999C18.5945 23.5052 18.03 23.2191 17.5188 22.8913C17.0025 22.5602 16.3797 22.0759 15.6195 21.4847L13.792 20.0636C13.05 19.4866 12.8902 19.3853 12.75 19.3474C12.5863 19.3031 12.4138 19.3031 12.25 19.3474C12.1098 19.3853 11.95 19.4866 11.2081 20.0636L9.38052 21.4848C8.62031 22.0759 7.99754 22.5602 7.48124 22.8913C6.97006 23.2191 6.40553 23.5052 5.77997 23.4999C4.91161 23.4925 4.09331 23.0924 3.55436 22.4116C3.16609 21.9212 3.04542 21.3 2.99038 20.6953C2.93479 20.0846 2.9348 19.2958 2.93481 18.3328V10.0652C2.93481 8.76166 2.9348 7.72496 3.00315 6.88856C3.07314 6.03206 3.21955 5.30173 3.56034 4.63302C4.11057 3.55334 4.98855 2.67553 6.06843 2.12541C6.73728 1.78468 7.46775 1.6383 8.32441 1.56832C9.16097 1.49999 10.1979 1.49999 11.5017 1.5ZM8.48019 3.47465C7.74184 3.53496 7.29115 3.64917 6.93694 3.82961C6.21702 4.19636 5.6317 4.78157 5.26488 5.50135C5.0844 5.85549 4.97017 6.30609 4.90984 7.04431C4.8486 7.79369 4.84786 8.75226 4.84786 10.107V18.2846C4.84786 19.3076 4.84881 20.0085 4.89555 20.522C4.94377 21.0517 5.02961 21.1933 5.05437 21.2246C5.23402 21.4515 5.50679 21.5849 5.79624 21.5873C5.83614 21.5877 6.00065 21.5685 6.44844 21.2813C6.88251 21.003 7.43649 20.5734 8.24415 19.9453L10.0336 18.5538C10.0733 18.5229 10.1127 18.4922 10.1517 18.4618C10.7039 18.031 11.1879 17.6534 11.7501 17.5012C12.2412 17.3682 12.7589 17.3682 13.25 17.5012C13.8122 17.6534 14.2962 18.031 14.8484 18.4618C14.8874 18.4922 14.9267 18.5229 14.9665 18.5538L16.7559 19.9453C17.5636 20.5734 18.1175 21.003 18.5516 21.2813C18.9994 21.5685 19.1639 21.5877 19.2038 21.5873C19.4933 21.5849 19.766 21.4515 19.9457 21.2246C19.9705 21.1933 20.0563 21.0517 20.1045 20.522C20.1512 20.0085 20.1522 19.3076 20.1522 18.2846V10.107C20.1522 8.75226 20.1515 7.79369 20.0902 7.04431C20.0299 6.30609 19.9157 5.85549 19.7352 5.50135C19.3684 4.78157 18.783 4.19636 18.0631 3.82961C17.7089 3.64917 17.2582 3.53496 16.5199 3.47465C15.7703 3.41342 14.8116 3.41267 13.4566 3.41267H11.5435C10.1885 3.41267 9.22972 3.41342 8.48019 3.47465Z" fill="black"/>
</svg>
