<svg width="43" height="41" viewBox="0 0 43 41" fill="none" xmlns="http://www.w3.org/2000/svg">
<g clip-path="url(#clip0_321_3625)">
<path d="M5.83968 39.0798C5.83968 39.0798 5.79644 37.3148 5.8136 35.2991C5.8639 29.4108 10.7691 20.4015 24.1938 20.3841C37.3525 20.367 41.8918 29.5985 41.8849 35.3718C41.8822 37.4265 41.9353 39.0946 41.9353 39.0946L5.83968 39.0798Z" stroke="black" stroke-width="1.81233"/>
<path d="M23.8877 16.9452C28.3168 16.9452 31.9072 13.3548 31.9072 8.92569C31.9072 4.49662 28.3168 0.906158 23.8877 0.906158C19.4586 0.906158 15.8682 4.49662 15.8682 8.92569C15.8682 13.3548 19.4586 16.9452 23.8877 16.9452Z" stroke="black" stroke-width="1.81233"/>
<path d="M0.738281 15.9901H9.71872" stroke="black" stroke-width="1.47654" stroke-linecap="round"/>
<path d="M5.22852 20.4804V11.4999" stroke="black" stroke-width="1.47654" stroke-linecap="round"/>
</g>
<defs>
<clipPath id="clip0_321_3625">
<rect width="42.8711" height="40.0012" fill="white"/>
</clipPath>
</defs>
</svg>
