<svg width="22" height="25" viewBox="0 0 22 25" fill="none" xmlns="http://www.w3.org/2000/svg">
<path fill-rule="evenodd" clip-rule="evenodd" d="M9.99579 1.87035e-07H12.2648C13.7464 -8.62239e-06 14.9247 -1.56219e-05 15.8753 0.0776398C16.8488 0.157161 17.6789 0.3235 18.4389 0.71069C19.6661 1.33583 20.6638 2.33334 21.289 3.56025C21.6763 4.32015 21.8427 5.15007 21.9222 6.12336C21.9999 7.07381 21.9999 8.25187 21.9999 9.73314V19.1282C21.9999 20.2225 21.9999 21.1189 21.9367 21.8129C21.8742 22.5 21.7371 23.2059 21.2958 23.7632C20.6834 24.5368 19.7535 24.9915 18.7667 24.9999C18.0559 25.006 17.4144 24.6808 16.8335 24.3083C16.2468 23.9321 15.539 23.3817 14.6751 22.7099L12.5984 21.095C11.7553 20.4394 11.5737 20.3243 11.4144 20.2811C11.2283 20.2308 11.0323 20.2308 10.8462 20.2811C10.6869 20.3243 10.5053 20.4394 9.66219 21.095L7.58541 22.7099C6.72153 23.3817 6.01384 23.9321 5.42714 24.3083C4.84625 24.6808 4.20474 25.006 3.49387 24.9999C2.5071 24.9915 1.57721 24.5368 0.964766 23.7632C0.523558 23.2059 0.386431 22.5 0.323884 21.8129C0.26071 21.1188 0.260725 20.2224 0.260743 19.1282V9.73317C0.260734 8.25188 0.260726 7.07382 0.338397 6.12336C0.417933 5.15007 0.584305 4.32015 0.97157 3.56025C1.59683 2.33334 2.59453 1.33583 3.82167 0.71069C4.58173 0.3235 5.4118 0.157161 6.38528 0.0776398C7.33592 -1.56219e-05 8.51422 -8.62239e-06 9.99579 1.87035e-07ZM6.56231 2.24392C5.72327 2.31245 5.21112 2.44224 4.80861 2.64729C3.99052 3.06405 3.32538 3.72905 2.90854 4.54699C2.70345 4.94942 2.57364 5.46147 2.50509 6.30035C2.4355 7.15192 2.43466 8.2412 2.43466 9.78072V19.0734C2.43466 20.2359 2.43574 21.0324 2.48885 21.6159C2.54364 22.2178 2.64119 22.3787 2.66933 22.4143C2.87348 22.6721 3.18344 22.8237 3.51237 22.8265C3.5577 22.8269 3.74465 22.8051 4.2535 22.4788C4.74677 22.1625 5.37628 21.6743 6.29408 20.9606L8.32754 19.3793C8.3727 19.3442 8.41741 19.3093 8.46174 19.2747C9.08921 18.7852 9.63923 18.3561 10.2781 18.1832C10.8362 18.0321 11.4244 18.0321 11.9825 18.1832C12.6214 18.3561 13.1714 18.7852 13.7989 19.2747C13.8432 19.3093 13.8879 19.3442 13.9331 19.3793L15.9665 20.9606C16.8843 21.6743 17.5138 22.1625 18.0071 22.4788C18.516 22.8051 18.7029 22.8269 18.7483 22.8265C19.0772 22.8237 19.3871 22.6721 19.5913 22.4143C19.6194 22.3787 19.717 22.2178 19.7718 21.6159C19.8249 21.0324 19.826 20.2359 19.826 19.0734V9.78072C19.826 8.2412 19.8251 7.15192 19.7555 6.30035C19.687 5.46147 19.5572 4.94942 19.3521 4.54699C18.9352 3.72905 18.2701 3.06405 17.452 2.64729C17.0495 2.44224 16.5373 2.31245 15.6983 2.24392C14.8466 2.17434 13.7571 2.17349 12.2173 2.17349H10.0434C8.50353 2.17349 7.41404 2.17434 6.56231 2.24392Z" fill="#26A69A"/>
</svg>
