<svg width="28" height="25" viewBox="0 0 28 25" fill="none" xmlns="http://www.w3.org/2000/svg">
<rect y="1.72415" width="28" height="23.2759" rx="2" fill="black"/>
<rect x="4" y="8.60968" width="5.97966" height="3.99053" rx="1" fill="white"/>
<rect x="17.9521" y="8.60968" width="5.97966" height="3.99053" rx="1" fill="white"/>
<rect x="10.9766" y="8.60968" width="5.97966" height="3.99053" rx="1" fill="white"/>
<rect x="4" y="18.586" width="5.97966" height="3.99053" rx="1" fill="white"/>
<rect x="17.9521" y="18.586" width="5.97966" height="3.99053" rx="1" fill="white"/>
<rect x="10.9766" y="18.586" width="5.97966" height="3.99053" rx="1" fill="white"/>
<rect x="4" y="13.5978" width="5.97966" height="3.99053" rx="1" fill="white"/>
<rect x="17.9521" y="13.5978" width="5.97966" height="3.99053" rx="1" fill="white"/>
<rect x="10.9766" y="13.5978" width="5.97966" height="3.99053" rx="1" fill="white"/>
<rect y="4.31033" width="28" height="2.58621" fill="white"/>
<rect x="6.26465" y="0.5" width="1.47059" height="3.31034" rx="0.735294" fill="white" stroke="black"/>
<rect x="20.2646" y="0.5" width="1.47059" height="3.31034" rx="0.735294" fill="white" stroke="black"/>
</svg>
