<svg width="35" height="35" viewBox="0 0 35 35" fill="none" xmlns="http://www.w3.org/2000/svg">
<path fill-rule="evenodd" clip-rule="evenodd" d="M9.78098 7.71894C9.50593 7.4533 9.13755 7.3063 8.75518 7.30963C8.37281 7.31295 8.00705 7.46632 7.73666 7.73671C7.46627 8.00709 7.3129 8.37286 7.30958 8.75523C7.30625 9.1376 7.45325 9.50598 7.71889 9.78103L15.4379 17.5L7.71889 25.2189C7.57961 25.3535 7.46851 25.5144 7.39208 25.6923C7.31565 25.8702 7.27542 26.0616 7.27374 26.2552C7.27205 26.4489 7.30895 26.6409 7.38228 26.8201C7.4556 26.9993 7.56389 27.1622 7.70082 27.2991C7.83774 27.436 8.00057 27.5443 8.17979 27.6176C8.35902 27.691 8.55105 27.7279 8.74469 27.7262C8.93832 27.7245 9.12969 27.6843 9.30761 27.6078C9.48553 27.5314 9.64645 27.4203 9.78098 27.281L17.4999 19.5621L25.2189 27.281C25.4939 27.5467 25.8623 27.6937 26.2447 27.6903C26.6271 27.687 26.9928 27.5336 27.2632 27.2633C27.5336 26.9929 27.687 26.6271 27.6903 26.2447C27.6936 25.8624 27.5466 25.494 27.281 25.2189L19.562 17.5L27.281 9.78103C27.5466 9.50598 27.6936 9.1376 27.6903 8.75523C27.687 8.37286 27.5336 8.00709 27.2632 7.73671C26.9928 7.46632 26.6271 7.31295 26.2447 7.30963C25.8623 7.3063 25.4939 7.4533 25.2189 7.71894L17.4999 15.4379L9.78098 7.71894Z" fill="black"/>
</svg>
