<svg width="25" height="25" viewBox="0 0 25 25" fill="none" xmlns="http://www.w3.org/2000/svg">
<path d="M12.5 0C19.4036 0 25 5.07576 25 11.337C25 17.5983 19.4036 22.6741 12.5 22.6741C11.0846 22.6741 9.72415 22.4607 8.4556 22.0675C7.0381 23.2253 4.83954 24.1973 1.86068 24.982C1.71964 25.0191 1.57042 24.9984 1.44345 24.924C1.16804 24.7626 1.06936 24.3973 1.22305 24.108L1.43623 23.7017C2.4255 21.7901 3.04273 20.2224 3.28791 18.9985C1.24568 16.9811 0 14.291 0 11.337C0 5.07576 5.59644 0 12.5 0Z" fill="black"/>
</svg>
