<svg width="30" height="25" viewBox="0 0 30 25" fill="none" xmlns="http://www.w3.org/2000/svg">
<path d="M14.5715 3.56174L14.9473 3.98995L15.3231 3.56174C17.1149 1.52003 19.1516 0.5 21.412 0.5C25.8207 0.5 29.3946 4.07397 29.3946 8.48269C29.3946 10.7402 28.9503 12.392 27.5727 14.2312C26.1664 16.1089 23.7839 18.1874 19.8482 21.2485L16.2363 24.0577C15.4781 24.6474 14.4165 24.6474 13.6583 24.0577L10.0464 21.2485C6.11073 18.1874 3.72829 16.1089 2.32192 14.2312C0.94438 12.392 0.5 10.7402 0.5 8.48269C0.5 4.07397 4.07397 0.5 8.48269 0.5C10.743 0.5 12.7797 1.52003 14.5715 3.56174Z" stroke="#E73A59"/>
</svg>
