<svg width="60" height="60" viewBox="0 0 60 60" fill="none" xmlns="http://www.w3.org/2000/svg">
<path d="M30.0099 7.5C39.7197 7.5 47.1429 15.6301 47.1429 25.8889L47.133 29.8031C47.1339 30.4616 47.5598 31.2229 48.7147 32.5821C48.8597 32.7529 48.9963 32.9111 49.2949 33.256C51.5881 35.9093 52.5 37.4453 52.5 39.8319C52.5 40.9056 52.3779 41.7397 51.8691 42.7405C50.7848 44.8734 48.4676 46.0714 45 46.0714L39.4261 46.0729C37.9949 50.924 34.7407 53.5714 30 53.5714C25.2593 53.5714 22.0051 50.924 20.5739 46.0729L15 46.0714C11.4318 46.0714 9.09006 44.841 8.0528 42.6348C7.6029 41.6779 7.5 40.9017 7.5 39.8319C7.5 37.4464 8.41019 35.9104 10.6989 33.2575C10.9969 32.9126 11.1332 32.7543 11.278 32.5836C12.4322 31.2227 12.8571 30.461 12.8571 29.801V25.8835C12.8571 15.6337 20.2972 7.5 30.0099 7.5ZM34.8844 46.0731H25.1156C26.0815 48.3068 27.64 49.2857 30 49.2857C32.36 49.2857 33.9184 48.3068 34.8844 46.0731ZM30.0099 11.7857C22.7536 11.7857 17.1429 17.9195 17.1429 25.8835V29.801C17.1429 31.789 16.3191 33.2655 14.5466 35.3556C14.3895 35.5409 14.2412 35.7131 13.9439 36.057C12.3153 37.9448 11.7857 38.8385 11.7857 39.8319C11.7857 40.3165 11.8199 40.5746 11.9312 40.8113C12.1968 41.3762 12.9762 41.7857 15 41.7857H45C46.9591 41.7857 47.7563 41.3735 48.0488 40.7983C48.1754 40.5492 48.2143 40.2834 48.2143 39.8319C48.2143 38.8395 47.6838 37.946 46.0524 36.0585C45.7546 35.7145 45.6061 35.5423 45.4486 35.3571C43.6726 33.2667 42.8473 31.79 42.8473 29.801L42.8571 25.8835C42.8571 17.9144 37.2614 11.7857 30.0099 11.7857Z" fill="black"/>
<circle cx="16" cy="14" r="10" fill="#17A8FA"/>
</svg>
