<svg width="40" height="40" viewBox="0 0 40 40" fill="none" xmlns="http://www.w3.org/2000/svg">
<path d="M20.0066 5C26.4798 5 31.4286 10.4201 31.4286 17.2592L31.422 19.8687C31.4226 20.3077 31.7066 20.8153 32.4765 21.7214C32.5732 21.8352 32.6642 21.9407 32.8632 22.1707C34.3921 23.9395 35 24.9635 35 26.5546C35 27.2704 34.9186 27.8265 34.5794 28.4937C33.8565 29.9156 32.3117 30.7143 30 30.7143L26.2841 30.7153C25.3299 33.9493 23.1605 35.7143 20 35.7143C16.8395 35.7143 14.6701 33.9493 13.7159 30.7153L10 30.7143C7.62119 30.7143 6.06004 29.894 5.36854 28.4232C5.0686 27.7853 5 27.2678 5 26.5546C5 24.9643 5.60679 23.9403 7.13262 22.1716C7.33129 21.9417 7.42216 21.8362 7.51869 21.7224C8.28815 20.8151 8.57143 20.3073 8.57143 19.8673V17.2556C8.57143 10.4224 13.5315 5 20.0066 5ZM23.2563 30.7154H16.7437C17.3877 32.2045 18.4267 32.8571 20 32.8571C21.5733 32.8571 22.6123 32.2045 23.2563 30.7154ZM20.0066 7.85714C15.1691 7.85714 11.4286 11.9464 11.4286 17.2556V19.8673C11.4286 21.1926 10.8794 22.177 9.69773 23.5704C9.59298 23.6939 9.4941 23.8087 9.29595 24.038C8.21017 25.2966 7.85714 25.8923 7.85714 26.5546C7.85714 26.8776 7.87996 27.0497 7.95416 27.2076C8.1312 27.5841 8.65083 27.8571 10 27.8571H30C31.3061 27.8571 31.8375 27.5823 32.0325 27.1988C32.1169 27.0328 32.1429 26.8556 32.1429 26.5546C32.1429 25.893 31.7892 25.2973 30.7016 24.039C30.5031 23.8097 30.404 23.6949 30.2991 23.5714C29.1151 22.1778 28.5649 21.1933 28.5649 19.8673L28.5714 17.2556C28.5714 11.943 24.8409 7.85714 20.0066 7.85714Z" fill="black"/>
</svg>
