<?xml version="1.0" encoding="UTF-8" standalone="no"?>
<svg
   width="35.211391"
   height="39.999992"
   viewBox="0 0 35.211391 39.999992"
   fill="none"
   version="1.1"
   id="svg4"
   sodipodi:docname="size=25px, selected=True.svg"
   inkscape:version="1.2.2 (b0a8486541, 2022-12-01)"
   xmlns:inkscape="http://www.inkscape.org/namespaces/inkscape"
   xmlns:sodipodi="http://sodipodi.sourceforge.net/DTD/sodipodi-0.dtd"
   xmlns="http://www.w3.org/2000/svg"
   xmlns:svg="http://www.w3.org/2000/svg">
  <defs
     id="defs8" />
  <path
     fill-rule="evenodd"
     clip-rule="evenodd"
     d="M 19.269347,1.6666783 H 15.942012 C 13.769511,1.6666616 12.041644,1.6666616 10.647643,1.780545 9.2201416,1.8971784 8.0029415,2.1411452 6.8884076,2.7090288 5.0889401,3.6258959 3.6259394,5.0889133 2.7090556,6.8883808 2.141172,8.002898 1.8972219,9.2201153 1.7805885,10.647616 1.6666884,12.0416 1.6667051,13.769401 1.6667051,15.941852 v 13.779507 c -1.67e-5,1.604834 -3.33e-5,2.919668 0.0926,3.937502 0.091717,1.007834 0.2928002,2.043168 0.9397838,2.860501 0.8980671,1.134667 2.2616511,1.801501 3.7086352,1.813834 1.0424005,0.009 1.9831005,-0.468 2.8349015,-1.014333 0.8603344,-0.551834 1.8980844,-1.359001 3.1648684,-2.344168 l 3.045351,-2.368668 c 1.236334,-0.961667 1.502668,-1.1305 1.736335,-1.193667 0.272666,-0.07383 0.560333,-0.07383 0.833,0 0.233667,0.06317 0.5,0.232 1.736334,1.193667 l 3.045168,2.368501 c 1.266834,0.985334 2.304668,1.792501 3.165002,2.344335 0.851834,0.546333 1.792501,1.023333 2.835001,1.014333 1.447001,-0.01233 2.810502,-0.679167 3.708502,-1.813834 0.647,-0.817333 0.848167,-1.852667 0.939834,-2.860501 0.09267,-1.017834 0.09267,-2.332501 0.09267,-3.937502 v -13.77934 c 0,-2.172534 0,-3.900435 -0.114001,-5.294403 C 33.31419,9.2201153 33.07019,8.002898 32.502357,6.8883808 31.585353,5.0889133 30.122353,3.6258959 28.323018,2.7090288 27.208351,2.1411452 25.991184,1.8971784 24.563683,1.780545 23.169683,1.6666616 21.441848,1.6666616 19.269347,1.6666783 Z"
     id="path2"
     stroke="#000000"
     stroke-width="3"
     />
</svg>
