<svg width="25" height="25" viewBox="0 0 25 25" fill="none" xmlns="http://www.w3.org/2000/svg">
<path fill-rule="evenodd" clip-rule="evenodd" d="M11.5014 1.5H13.4982C14.8019 1.49999 15.8388 1.49999 16.6754 1.56832C17.5321 1.6383 18.2625 1.78468 18.9314 2.12541C20.0113 2.67553 20.8892 3.55334 21.4395 4.63302C21.7803 5.30173 21.9267 6.03206 21.9967 6.88856C22.065 7.72495 22.065 8.76164 22.065 10.0652V18.3328C22.065 19.2958 22.065 20.0846 22.0094 20.6953C21.9544 21.3 21.8337 21.9212 21.4455 22.4116C20.9065 23.0924 20.0882 23.4925 19.2199 23.4999C18.5943 23.5052 18.0298 23.2191 17.5186 22.8913C17.0023 22.5602 16.3795 22.0759 15.6192 21.4847L13.7917 20.0636C13.0498 19.4866 12.89 19.3853 12.7498 19.3474C12.5861 19.3031 12.4135 19.3031 12.2498 19.3474C12.1096 19.3853 11.9498 19.4866 11.2078 20.0636L9.38028 21.4848C8.62006 22.0759 7.9973 22.5602 7.481 22.8913C6.96981 23.2191 6.40529 23.5052 5.77972 23.4999C4.91136 23.4925 4.09306 23.0924 3.55411 22.4116C3.16585 21.9212 3.04518 21.3 2.99014 20.6953C2.93454 20.0846 2.93456 19.2958 2.93457 18.3328V10.0652C2.93456 8.76166 2.93456 7.72496 3.00291 6.88856C3.0729 6.03206 3.21931 5.30173 3.5601 4.63302C4.11033 3.55334 4.9883 2.67553 6.06819 2.12541C6.73704 1.78468 7.4675 1.6383 8.32417 1.56832C9.16073 1.49999 10.1976 1.49999 11.5014 1.5ZM8.47995 3.47465C7.74159 3.53496 7.29091 3.64917 6.9367 3.82961C6.21677 4.19636 5.63145 4.78157 5.26463 5.50135C5.08415 5.85549 4.96992 6.30609 4.9096 7.04431C4.84836 7.79369 4.84761 8.75226 4.84761 10.107V18.2846C4.84761 19.3076 4.84857 20.0085 4.89531 20.522C4.94352 21.0517 5.02936 21.1933 5.05413 21.2246C5.23378 21.4515 5.50655 21.5849 5.796 21.5873C5.8359 21.5877 6.00041 21.5685 6.4482 21.2813C6.88227 21.003 7.43624 20.5734 8.24391 19.9453L10.0333 18.5538C10.0731 18.5229 10.1124 18.4922 10.1515 18.4618C10.7036 18.031 11.1876 17.6534 11.7498 17.5012C12.241 17.3682 12.7586 17.3682 13.2497 17.5012C13.8119 17.6534 14.2959 18.031 14.8481 18.4618C14.8871 18.4922 14.9265 18.5229 14.9662 18.5538L16.7557 19.9453C17.5633 20.5734 18.1173 21.003 18.5514 21.2813C18.9992 21.5685 19.1637 21.5877 19.2036 21.5873C19.493 21.5849 19.7658 21.4515 19.9454 21.2246C19.9702 21.1933 20.0561 21.0517 20.1043 20.522C20.151 20.0085 20.152 19.3076 20.152 18.2846V10.107C20.152 8.75226 20.1512 7.79369 20.09 7.04431C20.0297 6.30609 19.9154 5.85549 19.7349 5.50135C19.3681 4.78157 18.7828 4.19636 18.0629 3.82961C17.7087 3.64917 17.258 3.53496 16.5196 3.47465C15.7701 3.41342 14.8113 3.41267 13.4563 3.41267H11.5433C10.1882 3.41267 9.22947 3.41342 8.47995 3.47465Z" fill="#26A69A"/>
</svg>
