<svg width="43" height="40" viewBox="0 0 43 40" fill="none" xmlns="http://www.w3.org/2000/svg">
<g clip-path="url(#clip0_321_3626)">
<path d="M5.83768 39.0786C5.83768 39.0786 5.79445 37.3137 5.81167 35.298C5.86196 29.4099 10.767 20.4009 24.1913 20.3834C37.3496 20.3663 41.8888 29.5977 41.8819 35.3708C41.8791 37.4253 41.9323 39.0935 41.9323 39.0935L5.83768 39.0786Z" stroke="black" stroke-width="1.81227"/>
<path d="M23.8855 16.9447C28.3144 16.9447 31.9048 13.3543 31.9048 8.92541C31.9048 4.49648 28.3144 0.906128 23.8855 0.906128C19.4566 0.906128 15.8662 4.49648 15.8662 8.92541C15.8662 13.3543 19.4566 16.9447 23.8855 16.9447Z" stroke="black" stroke-width="1.81227"/>
<path d="M0.738281 16.9539L3.4464 19.9663L10.4695 14.7108" stroke="black" stroke-width="1.47654" stroke-linecap="round"/>
</g>
<defs>
<clipPath id="clip0_321_3626">
<rect width="42.8681" height="40" fill="white"/>
</clipPath>
</defs>
</svg>
