<?xml version="1.0" encoding="UTF-8" standalone="no"?>
<!-- Created with Inkscape (http://www.inkscape.org/) -->

<svg
   width="10.623039mm"
   height="10.583359mm"
   viewBox="0 0 10.623039 10.583359"
   version="1.1"
   id="svg5"
   inkscape:export-filename="edit-icon.svg"
   inkscape:export-xdpi="96"
   inkscape:export-ydpi="96"
   xmlns:inkscape="http://www.inkscape.org/namespaces/inkscape"
   xmlns:sodipodi="http://sodipodi.sourceforge.net/DTD/sodipodi-0.dtd"
   xmlns="http://www.w3.org/2000/svg"
   xmlns:svg="http://www.w3.org/2000/svg">
  <sodipodi:namedview
     id="namedview7"
     pagecolor="#ffffff"
     bordercolor="#666666"
     borderopacity="1.0"
     inkscape:showpageshadow="2"
     inkscape:pageopacity="0.0"
     inkscape:pagecheckerboard="0"
     inkscape:deskcolor="#d1d1d1"
     inkscape:document-units="mm"
     showgrid="false" />
  <defs
     id="defs2" />
  <g
     inkscape:label="Слой 1"
     inkscape:groupmode="layer"
     id="layer1"
     transform="translate(-95.690058,-175.45793)">
    <path
       id="path288-3-6-7-5-1-7-9-6"
       style="fill:none;stroke:#000000;stroke-width:0.602615;stroke-linecap:butt;stroke-linejoin:miter;stroke-dasharray:none;stroke-opacity:1"
       d="m 104.1783,175.93044 -1.03112,1.04047 1.71057,1.72611 1.03114,-1.04049 z m -1.7763,1.78434 -3.184365,3.22132 -0.562046,2.29319 2.272631,-0.5671 3.18435,-3.2213 z"
       sodipodi:nodetypes="ccccccccccc" />
    <path
       id="rect3498-3-2-0-3-0"
       style="color:#000000;fill:#000000;fill-opacity:1;stroke:#000000;stroke-width:0.796757;stroke-linejoin:round;stroke-dasharray:none;stroke-opacity:1"
       d="m 97.203539,175.85648 c -0.615525,0 -1.115107,0.50722 -1.115107,1.13212 v 7.52249 c 0,0.6249 0.499582,1.13183 1.115107,1.13183 h 7.409541 c 0.61551,0 1.11489,-0.50693 1.11489,-1.13183 v -4.99543 a 2.4530874,2.7160456 0 0 1 -0.0438,0.0124 v 4.98294 c 0,0.60085 -0.47923,1.08732 -1.07106,1.08732 h -7.409531 c -0.591827,0 -1.071275,-0.48647 -1.071275,-1.08732 v -7.52248 c 0,-0.60084 0.479448,-1.08732 1.071275,-1.08732 h 5.535761 a 2.4530874,2.7160456 0 0 1 0.0168,-0.0449 z" />
  </g>
</svg>
