<svg width="40" height="40" viewBox="0 0 40 40" fill="none" xmlns="http://www.w3.org/2000/svg">
<g clip-path="url(#clip0_609_3845)">
<path d="M31.717 2.27271L27.9294 6.10011L34.2127 12.4496L38.0004 8.62211L31.717 2.27271ZM25.1922 8.83641L13.4952 20.686L11.4307 29.1215L19.7786 27.0354L31.4755 15.1859L25.1922 8.83641Z" stroke="black" stroke-width="2.2776"/>
<path d="M6.09606 2.00067C3.83508 2.00067 2 3.8665 2 6.16519V33.8366C2 36.1353 3.83508 38 6.09606 38H33.3131C35.5741 38 37.4084 36.1353 37.4084 33.8366V15.4609C37.3549 15.4767 37.3013 15.4919 37.2475 15.5066V33.8363C37.2475 36.0465 35.4872 37.8359 33.3133 37.8359H6.09622C3.9223 37.8359 2.16114 36.0465 2.16114 33.8363V6.16491C2.16114 3.95472 3.9223 2.16519 6.09622 2.16519H26.4304C26.4506 2.10993 26.4711 2.05485 26.4921 2L6.09606 2.00067Z" fill="black" stroke="black" stroke-width="3.01137" stroke-linejoin="round"/>
</g>
<defs>
<clipPath id="clip0_609_3845">
<rect width="40" height="40" fill="white"/>
</clipPath>
</defs>
</svg>
