<svg width="48" height="40" viewBox="0 0 48 40" fill="none" xmlns="http://www.w3.org/2000/svg">
<path d="M23.2486 5.8307L24.0002 6.68713L24.7518 5.8307C27.5889 2.59795 30.7959 1 34.3436 1C41.2871 1 46.9159 6.62881 46.9159 13.5723C46.9159 17.1482 46.215 19.7472 44.0407 22.65C41.8089 25.6298 38.018 28.9404 31.7188 33.8397L25.9398 38.3345C24.7989 39.2218 23.2014 39.2218 22.0606 38.3345L16.2815 33.8397C9.98241 28.9404 6.19147 25.6298 3.95963 22.65C1.78542 19.7472 1.08447 17.1482 1.08447 13.5723C1.08447 6.62881 6.71328 1 13.6568 1C17.2044 1 20.4115 2.59795 23.2486 5.8307Z" stroke="black" stroke-width="2"/>
</svg>
