<svg width="36" height="40" viewBox="0 0 36 40" fill="none" xmlns="http://www.w3.org/2000/svg">
<g clip-path="url(#clip0_610_149)">
<path fill-rule="evenodd" clip-rule="evenodd" d="M15.8154 0H20.1848C22.5201 0 24.3499 -2.41933e-05 25.8214 0.119955C27.3193 0.242508 28.5575 0.496138 29.6767 1.06635C31.5187 2.00456 33.0164 3.50192 33.955 5.34376C34.5252 6.46379 34.7788 7.70124 34.9014 9.19912C35.0214 10.6715 35.0213 12.5012 35.0213 14.8365V32.131C35.0213 33.6484 35.0213 34.8748 34.9354 35.8212C34.8502 36.7591 34.6656 37.6765 34.098 38.3914C33.7017 38.8903 33.1984 39.2939 32.6252 39.5723C32.0521 39.8507 31.4237 39.9968 30.7865 39.9999C29.8742 40.0031 29.0385 39.582 28.2487 39.0688C27.4521 38.5522 26.487 37.7931 25.2955 36.8561L19.8206 32.5497C18.7942 31.7429 18.5644 31.5931 18.3585 31.537C18.1236 31.4728 17.8759 31.4728 17.641 31.537C17.4368 31.5932 17.207 31.7428 16.1797 32.5497L10.7049 36.8561C9.51337 37.7931 8.54827 38.5522 7.75168 39.0688C6.96187 39.582 6.12614 40.005 5.21382 39.9999C4.57663 39.9968 3.94828 39.8507 3.37512 39.5723C2.80196 39.2939 2.29865 38.8903 1.90233 38.3914C1.33469 37.6765 1.15001 36.7591 1.0649 35.8212C0.979013 34.8748 0.979004 33.6476 0.979004 32.131V14.8365C0.979004 12.5021 0.97898 10.6715 1.09896 9.19996C1.22151 7.70211 1.47514 6.4638 2.04535 5.34465C2.98357 3.5026 4.48091 2.00492 6.32277 1.06635C7.44276 0.496138 8.68023 0.242508 10.1781 0.119955C11.6513 -2.41933e-05 13.4801 0 15.8154 0ZM10.3865 2.66464C9.0461 2.77433 8.18225 2.9847 7.48183 3.34123C6.1205 4.03482 5.01371 5.14164 4.32014 6.50297C3.96351 7.20339 3.75333 8.06719 3.64355 9.40762C3.5329 10.7625 3.53194 12.4893 3.53194 14.8936V32.0654C3.53194 33.6637 3.53361 34.7735 3.60782 35.5897C3.68437 36.4288 3.82239 36.7037 3.90152 36.8033C4.06001 37.0028 4.26125 37.1642 4.49045 37.2756C4.71965 37.3869 4.97093 37.4454 5.22574 37.4467C5.35248 37.4467 5.65385 37.3862 6.36021 36.9276C7.04786 36.4816 7.92194 35.7956 9.17725 34.8084L14.6002 30.5429L14.762 30.4152C15.5314 29.8092 16.1952 29.285 16.968 29.0739C17.6433 28.8895 18.3556 28.8895 19.0309 29.0739C19.8037 29.2849 20.4675 29.8092 21.2369 30.4152L21.3987 30.5429L26.8208 34.8076C28.077 35.7956 28.951 36.4816 29.6378 36.9276C30.3442 37.3863 30.6463 37.4467 30.7731 37.4467C31.0281 37.4456 31.2795 37.3871 31.5089 37.2758C31.7383 37.1644 31.9396 37.003 32.0982 36.8033C32.1774 36.7036 32.316 36.4288 32.3919 35.5897C32.4669 34.7735 32.4679 33.6637 32.4679 32.0654V14.8936C32.4679 12.4893 32.467 10.7625 32.3562 9.40762C32.2465 8.06719 32.0362 7.20339 31.6797 6.50297C30.9861 5.14163 29.8793 4.03481 28.5179 3.34123C27.8175 2.98464 26.9537 2.77442 25.6133 2.66464C24.2592 2.55399 22.5324 2.55303 20.1281 2.55303H15.8725C13.4682 2.55303 11.7414 2.55386 10.3865 2.66464Z" fill="#26A69A"/>
</g>
<defs>
<clipPath id="clip0_610_149">
<rect width="34.0423" height="40" fill="white" transform="translate(0.979004)"/>
</clipPath>
</defs>
</svg>
