<svg width="25" height="25" viewBox="0 0 25 25" fill="none" xmlns="http://www.w3.org/2000/svg">
<g clip-path="url(#clip0_614_4439)">
<path d="M18.6837 3.14389L16.6847 5.16391L20.0009 8.51503L22 6.49497L18.6837 3.14389ZM15.2401 6.60806L9.06668 12.862L7.97705 17.3141L12.3829 16.2131L18.5563 9.95919L15.2401 6.60806Z" stroke="white" stroke-width="1.46646"/>
<path d="M5.16181 3.00028C3.96852 3.00028 3 3.98501 3 5.19821V19.8026C3 21.0158 3.96852 22 5.16181 22H19.5264C20.7197 22 21.6878 21.0158 21.6878 19.8026V10.1043C21.6595 10.1127 21.6312 10.1207 21.6028 10.1284V19.8025C21.6028 20.969 20.6737 21.9135 19.5264 21.9135H5.16183C4.01448 21.9135 3.08497 20.969 3.08497 19.8025V5.19812C3.08497 4.03162 4.01448 3.08714 5.16183 3.08714H15.8938C15.9044 3.05799 15.9152 3.02894 15.9263 3L5.16181 3.00028Z" fill="white" stroke="white" stroke-width="1.9389" stroke-linejoin="round"/>
</g>
<defs>
<clipPath id="clip0_614_4439">
<rect width="21" height="21" fill="white" transform="translate(2 2)"/>
</clipPath>
</defs>
</svg>
