<svg width="24" height="24" viewBox="0 0 24 24" fill="none" xmlns="http://www.w3.org/2000/svg">
<path d="M18.84 7.27297L16.718 5.15197L10.167 11.7037C9.70356 12.1671 9.36109 12.7374 9.16973 13.3642L8.63872 15.1036C8.6271 15.1417 8.6271 15.1823 8.63872 15.2204C8.67097 15.3261 8.78276 15.3855 8.8884 15.3533L10.6278 14.8223C11.2547 14.6309 11.8249 14.2885 12.2883 13.825L18.84 7.27297Z" fill="#99A2AD"/>
<path d="M20.8427 5.27062C21.4285 4.68483 21.4285 3.73509 20.8427 3.1493C20.2569 2.56351 19.3072 2.56351 18.7214 3.1493L17.659 4.21097L19.78 6.33197L20.8427 5.27062Z" fill="#99A2AD"/>
<path d="M12 4.99994L7.16146 4.99994C6.63431 4.99992 6.17955 4.99991 5.80497 5.03051C5.40963 5.06281 5.01641 5.13413 4.63803 5.32692C4.07354 5.61454 3.6146 6.07348 3.32698 6.63797C3.13419 7.01635 3.06287 7.40957 3.03057 7.80491C2.99997 8.17948 2.99998 8.63423 3 9.16136V16.8385C2.99998 17.3656 2.99997 17.8204 3.03057 18.195C3.06287 18.5903 3.13419 18.9835 3.32698 19.3619C3.6146 19.9264 4.07354 20.3853 4.63803 20.673C5.01641 20.8658 5.40963 20.9371 5.80497 20.9694C6.17952 21 6.63425 21 7.16136 20.9999H14.8385C15.3656 21 15.8205 21 16.195 20.9694C16.5904 20.9371 16.9836 20.8658 17.362 20.673C17.9265 20.3853 18.3854 19.9264 18.673 19.3619C18.8658 18.9835 18.9371 18.5903 18.9694 18.195C19 17.8204 19 17.3657 19 16.8386V11.9999C19 11.4477 18.5523 10.9999 18 10.9999C17.4477 10.9999 17 11.4477 17 11.9999V16.7999C17 17.3765 16.9992 17.7488 16.9761 18.0321C16.9539 18.3038 16.9162 18.4045 16.891 18.4539C16.7951 18.6421 16.6422 18.7951 16.454 18.8909C16.4045 18.9161 16.3038 18.9538 16.0322 18.976C15.7488 18.9992 15.3766 18.9999 14.8 18.9999H7.2C6.62345 18.9999 6.25118 18.9992 5.96784 18.976C5.69618 18.9538 5.59546 18.9161 5.54601 18.8909C5.35785 18.7951 5.20487 18.6421 5.109 18.4539C5.0838 18.4045 5.04613 18.3038 5.02393 18.0321C5.00078 17.7488 5 17.3765 5 16.7999V9.19994C5 8.62339 5.00078 8.25111 5.02393 7.96778C5.04613 7.69611 5.0838 7.59539 5.109 7.54595C5.20487 7.35779 5.35785 7.20481 5.54601 7.10893C5.59546 7.08374 5.69618 7.04606 5.96784 7.02387C6.25118 7.00072 6.62345 6.99994 7.2 6.99994H12C12.5523 6.99994 13 6.55223 13 5.99994C13 5.44766 12.5523 4.99994 12 4.99994Z" fill="#99A2AD"/>
</svg>
